<?xml version="1.0" encoding="utf-8"?>
<!-- Generator: Adobe Illustrator 16.0.0, SVG Export Plug-In . SVG Version: 6.00 Build 0)  -->
<!DOCTYPE svg PUBLIC "-//W3C//DTD SVG 1.1//EN" "http://www.w3.org/Graphics/SVG/1.1/DTD/svg11.dtd">
<svg version="1.1" id="Ebene_1" xmlns="http://www.w3.org/2000/svg" xmlns:xlink="http://www.w3.org/1999/xlink" x="0px" y="0px"
   viewBox="0 0 607.739 247.564" enable-background="new 0 0 607.739 247.564"
     xml:space="preserve">
<path fill="#011993" d="M83.937,160.336c-1.557,1.574-3.688,3.86-7.604,5.344c-3.917,1.484-11.543,5.958-15.952,7.481
	c-4.409,1.525-5.341,2.679-6.767,3.873c-1.425,1.194-3.145-0.394-6.948,1.03c-3.803,1.422-11.022,7.079-13.839,9.669
	c-2.817,2.593-1.991,0.54-3.895-0.144c-1.904-0.682-9.279,2-14.764,9.866c4.088-9.214,7.498-8.741,15.515-13.862
	c8.016-5.121,5.019-5.373,5.019-5.373s-1.122,0.521-2.681,0.904c1.168-3.482,10.395-10.347,15.71-14.187s1.162-2.524-1.546-1.533
	s-10.252-11.327-9.17-14.837c-1.783-0.453-3.207-1.757-3.207-1.757s-3.78-1.453-3.529-3.201c-3.18-1.846-3.667-4.013-3.667-4.013
	s-5.062-2.905-2.657-4.471c-2.289-0.994-4.664-3.263-2.854-4.146c-4.388-2.604-12.547-11.362-11.568-12.982
	c1.311-2.383,20.643,10.973,24.902,14.304c4.259,3.331,6.063,3.405,5.652,1.934c-3.042-9.778-7.078-13.521-9.833-15.811
	c-2.754-2.29-0.896-3.657-2.408-4.989c-1.513-1.33-13.354-9.161-1.523-5.118c9.82,3.292,28.404,15.822,36.219,24.766
	c7.814,8.942,11.116,12.268,7.771,20.624c10.473-2.183,12.576,1.598,13.872,3.63c1.295,2.033,3.07,2.195,3.07,2.195
	C85.638,159.802,85.493,158.76,83.937,160.336z"/>
    <path fill="#011993" d="M155.844,145.056c0,0,0.021-0.806-5.072-2.217c-5.096-1.411-6.249-0.917-3.665-7.312
	c2.585-6.396,4.576-6.25-0.691-12.177c-5.265-5.928-8.981-13.051-8.981-13.051s-3.564-1.8-7.373-7.121
	c-9.855-4.76-10.75-8.866-10.182-8.71c0.566,0.157,13.384,2.284,26.187,12.534c12.804,10.249,25.818,19.743,29.041,25.714
	c3.223,5.973,4.868,6.63,1.767,9.021c-3.099,2.392-3.464,3.712-1.201,4.339c2.265,0.628,10.461,0.729,13.65,9.117
	c1.792,0.916,2.659,1.638,2.994,1.939c-1.816,0.162-4.028,0.016-4.028,0.016s-1.302,1.545-12.363,2.629
	c-11.062,1.084-20.333,1.771-25.617-0.375c-5.285-2.146-6.66-2.105-9.337-2.112c-2.677-0.007-4.058-1.647-5.453-2.298
	c-1.396-0.648-8.03-1.33-17.954-0.193c-9.919,1.138-9.919,1.138-9.919,1.138s12.608-3.071,11.479-3.541
	c-1.131-0.471-4.082-1.183-5.395-2.701c4.04,1.906,6.253,2.256,14.542,0.193c8.287-2.061,11.878-2.904,15.548-3.829
	C147.488,145.136,152.452,144.561,155.844,145.056z"/>
    <path fill="#011993" d="M280.567,170.615c1.756,0.8,3.268,2.014,4.583,3.505c1.315,1.49,1.918,3.888,3.834,6.671
	c-3.256-1.145-8.375,0.962-10.569,1.208c-3.805,0.685-5.295,1.263-14.231-0.557c-9.518-2.304-10.823-4.077-14.272-6.286
	c-2.411-2.159-5.675-2.079-8.478-4.587c-7.433-0.546-18.061-3.397-20.304-4.25c-2.243-0.854-0.02-1.537,2.692-1.063
	c2.714,0.473,9.579,0.591,9.857-0.854c0.275-1.443-6.44-4.123-8.548-5.086c-2.107-0.961-0.536-1.899,3.193-1.134
	c3.724,0.765,11.453,3.736,18.604,4.622c-7.384-4.47-13.683-10.483-17.991-14.442c-4.307-3.958-8.433-6.732-9.914-8.979
	c-1.481-2.245,2.251-0.375,9.922,4.864c7.67,5.238,12.745,8.911,26.078,16.347c-3.794-3.598-0.958-5.996,0.268-9.428
	c1.225-3.432,1.563-3.146,0.158-3.79c0.605-0.487,1.755,0.248,3.25,0.039c-1.324-0.817-3.254-4.032-1.547-5.078
	c-2.027-1.138-2.834-3.373-1.071-4.351c-1.271-0.75-2.499-3.645-0.681-4.557c-1.002-0.967-2.78-3.308-0.927-4.582
	c-1.49-1.572-2.215-3.982-0.71-4.865c-1.288-1.734-2.609-4.332-0.364-5.812c-3.349-4.287-0.843-4.757-0.843-4.757
	s-2.526-3.954-1.855-4.496c0.672-0.543,4.034,3.07,4.034,3.07s-2.891-3.992-2.084-4.646c0.807-0.65,4.753,4.375,9.312,10.021
	c4.557,5.643,9.202,18.542,13.746,30.081c4.545,11.536,4.901,15.689,3.94,17.798c-0.962,2.109-2.719,3.947-2.719,3.947
	S278.811,169.813,280.567,170.615z"/>
    <path fill="#011993" d="M578.989,85.915c0,0,0.338-4.835-2.193-7.362c0.975-5.51,1.709-8.802-0.723-10.565
	c-2.43-1.767-2.289-3.062-5.289-11.63c-2.996-8.567-7.271-17.462-12.736-24.053c-5.461-6.591-10.736-11.474-11.719-9.332
	c-0.982,2.14,3.676,7.518,3.676,7.518s-6.67-7.497-8.393-5.438c-1.725,2.061,4.326,8.366,4.326,8.366s-3.912-1.926-4.438,1.2
	c-0.529,3.128,4.807,7.456,4.807,7.456s-4.775-2.724-5.436,0.835c-0.57,3.569,4.484,8.024,4.484,8.024s-5.705-4.524-5.182-0.724
	c0.521,3.803,2.637,3.284,1.928,8.078c-0.711,4.791,2.705,4.413,0.449,7.915c-2.256,3.5,1.855,3.573,1.225,5.941
	c-0.633,2.365,4.125,5.131,2.318,6.245c-1.809,1.112-12.846-5.896-20.074-11.74c-7.229-5.849-24.791-25.184-25.938-23.247
	c-1.146,1.934,0.729,5.323,2.422,7.007c-2.242,1.63-0.461,5.946,2.338,7.748c-2.01,2.964-0.506,4.626,4.188,7.951
	c-0.852,4.398,3.674,5.831,5.074,6.732c-0.775,3.662,4.063,5.687,4.063,5.687s0.254,2.837,3.834,4.352
	c1.035,4.235,4.924,4.659,4.924,4.659s1.318,3.328,5.148,4.306c-0.08,2.431,9.709,12.302,19.051,14.255
	c3.395,1.494,2.307,1.184-0.008,6.933c-2.313,5.738-7.98,18.231-14.506,26.514c-6.521,8.279-9.164,13.608-3.131,6.4
	c6.031-7.21,6.727-8.446,8.291-7.338c1.564,1.106,4.598-4.37,8.684-7.482c4.088-3.116,13.082-8.311,16.244-11.529
	c4.404,2.542,2.604-3.273,6.994-7.476c4.395-4.206,12.449-7.634,15.52-15.167c3.063-7.533,6.533-10.151,8.57-11.618
	c2.029-1.46-2.592-0.283-4.4-0.852c-1.814-0.573-3.502-2.252-6.691-2.229C583.506,82.284,581.145,83.337,578.989,85.915z"/>
    <path fill="#011993" d="M386.319,193.483c-2.289-0.648-3.24-0.414-5.596,0.671c-1.646,0.759-3.32,1.3-7.199,1.368
	c0.316,0.935,0.25,1.283-2.943,5.977c-3.195,4.688-10.766,14.658-14.781,18.616c-4.02,3.958-2.799-1.92-2.799-1.92
	s-3.939,3.779-4.781,2.703c-0.842-1.077,0.953-2.999,0.953-2.999s-1.33-2.004,0.051-3.644c-0.93-1.072-1.189-2.53-0.029-6.498
	c-1.93,1.066-5.027,4.451-11.912,9.786c-6.885,5.337-10.73,7.727-19.008,11.411c1.805-1.751,3.479-4.276-1.146-3.313
	c4.326-3.108,5.127-5.755,9.834-14.258c4.705-8.502,6.561-10.862,12.98-16.78c-5.316-2.031-14.078-2.219-18.826-1.856
	c-4.742,0.36-6.334,1.319-6.061,0.003c0.586-1.854-7.808-1.627-7.808-1.627s8.487-0.058,14.22-1.342
	c5.73-1.283,15.049-7.974,29.4-10.019c14.35-2.039,22.967,2.374,27.592,4.446s5.094,4.348,5.803,6.001
	C384.262,190.209,384.663,191.845,386.319,193.483z"/>
    <path fill="#011993" d="M455.122,152.611c0.809-3.822,0.91-6,2.881-7.604c-1.75-2.53-1.426-6.78,1.279-7.509
	c-1.551-5.059,3.086-6.014,3.086-6.014s-1.176-6.452,2.619-6.101c-1.871-6.64,3.592-9.131,3.592-9.131s-1.076-8.747,4.16-9.163
	c-0.854-2.924-0.68-9.799,3.805-7.428c0.48-7.463,4.58-5.87,4.58-5.87s0,0,0.795-5.994c0.801-5.993,5.975,8.351,5.975,8.351
	s0,0,0.08-10.529c0.078-10.529,3.732-4.677,4.557,3.627c0.822,8.303,1.346,13.421-1.857,33.168
	c-3.203,19.746-6.125,18.771-6.125,18.771s1.646,4.709-2.623,9.99c0.367,2.383-5.672,11.414-5.672,11.414s3.967-1.626,7.92-0.219
	c4.906,1.75,5.229,5.305,5.229,5.305s1.037,0.168,3.096,2.108c-1.703,0.214-4.656,0.611-7.59,3.301
	c-2.936,2.688-7.229,5.565-18.693,9.086c-11.465,3.523-15.139,7.284-22.656,7.831c-7.521,0.549-9.967-0.223-20.953,1.67
	c-10.988,1.893-12.342,0.255-12.342,0.255s7.459,0.37,13.754-3.542c6.295-3.91,10.07-5.354,17.029-8.19
	c2.145-0.875,3.717-2.832,5.631-5.9c-4.85-0.75-4.498-0.229-4.725-2.161c-5.467,0.432-10.736-1.668-9.445-3.114
	c-6.428-0.314-10.148-3.417-5.959-4.117c-4.484-0.428-8.723-2.47-5.697-3.56c-4.533-1.227-6.082-2.28-4.295-3.071
	c-1.744-0.473-5.215-3.13-2.814-3.154c-2.854-1.896-4.039-4.572-1.854-4.355c-2.371-1.464-3.955-5.146-1.959-4.231
	c-1.213-1.188-1.637-4.597,0.246-3.676c-1.326-3.127-0.178-6.969-0.178-6.969s1.883,4.811,6.631,11.743
	c4.744,6.935,11.596,10.655,16.854,12.526c5.256,1.869,16.508,5.429,16.666,4.881C451.194,161.427,454.313,156.431,455.122,152.611z
	"/>
</svg>