<svg viewBox="0 0 568 135" fill="none"
xmlns="http://www.w3.org/2000/svg">

<path d="M173.934 108H156.807V71.3325C156.807 66.8029 156.002 63.415 
154.393 61.1689C152.783 58.8854 150.219 57.7437 146.7 57.7437C141.908 
57.7437 138.445 59.3534 136.312 62.5728C134.178 65.7547 133.111 71.0518 
133.111 78.4639V108H115.984V45.2217H129.068L131.37 53.2515H132.325C134.234 
50.2192 136.854 47.9357 140.186 46.4009C143.555 44.8286 147.374 44.0425 
151.641 44.0425C158.941 44.0425 164.481 46.0265 168.262 49.9946C172.043 
53.9253 173.934 59.6154 173.934 67.0649V108ZM206.502 108L182.581 
45.2217H200.494L212.623 80.9907C213.97 85.5203 214.812 89.8066 215.149 
93.8496H215.486C215.674 90.2559 216.516 85.9696 218.013 80.9907L230.086 
45.2217H247.999L224.078 108H206.502ZM270.684 76.4985C270.684 82.7127 
271.695 87.4108 273.716 90.5928C275.775 93.7747 279.107 95.3657 283.711 
95.3657C288.278 95.3657 291.554 93.7935 293.538 90.6489C295.56 87.467 
296.57 82.7502 296.57 76.4985C296.57 70.2843 295.56 65.6237 293.538 
62.5166C291.517 59.4095 288.204 57.856 283.599 57.856C279.032 57.856 
275.738 59.4095 273.716 62.5166C271.695 65.5863 270.684 70.2469 270.684 
76.4985ZM314.09 76.4985C314.09 86.7183 311.395 94.7106 306.004 
100.476C300.613 106.241 293.108 109.123 283.487 109.123C277.46 109.123 
272.144 107.813 267.54 105.192C262.935 102.535 259.397 98.7349 256.927 
93.7935C254.456 88.8521 253.221 83.0871 253.221 76.4985C253.221 66.2414 
255.897 58.2677 261.25 52.5776C266.604 46.8875 274.128 44.0425 283.824 
44.0425C289.851 44.0425 295.167 45.3527 299.771 47.9731C304.375 50.5936 
307.913 54.3558 310.384 59.2598C312.854 64.1637 314.09 69.91 314.09 
76.4985Z" fill="black"/>
<path d="M197.532 34L197.129 32.0957H197.031C196.364 32.9339 195.697 
33.5036 195.029 33.8047C194.37 34.0977 193.544 34.2441 192.551 
34.2441C191.225 34.2441 190.183 33.9023 189.426 33.2188C188.678 32.5352 
188.303 31.5627 188.303 30.3013C188.303 27.5994 190.464 26.1834 194.785 
26.0532L197.056 25.98V25.1499C197.056 24.1001 196.828 23.327 196.372 
22.8306C195.924 22.326 195.204 22.0737 194.211 22.0737C193.097 22.0737 
191.835 22.4155 190.427 23.0991L189.805 21.5488C190.464 21.1908 191.184 
20.91 191.965 20.7065C192.755 20.5031 193.544 20.4014 194.333 
20.4014C195.929 20.4014 197.109 20.7554 197.874 21.4634C198.647 22.1714 
199.033 23.3066 199.033 24.8691V34H197.532ZM192.954 32.5718C194.215 
32.5718 195.204 32.2259 195.92 31.5342C196.645 30.8424 197.007 29.874 
197.007 28.6289V27.4204L194.98 27.5059C193.369 27.5628 192.205 27.8151 
191.489 28.2627C190.781 28.7021 190.427 29.3898 190.427 30.3257C190.427 
31.0581 190.647 31.6156 191.086 31.998C191.534 32.3805 192.157 32.5718 
192.954 32.5718ZM211.851 30.3501C211.851 31.5952 211.387 32.5555 210.459 
33.231C209.531 33.9064 208.229 34.2441 206.553 34.2441C204.779 34.2441 
203.395 33.9634 202.402 33.4019V31.522C203.045 31.8475 203.733 32.1038 
204.465 32.291C205.206 32.4782 205.918 32.5718 206.602 32.5718C207.66 
32.5718 208.473 32.4049 209.043 32.0713C209.613 31.7295 209.897 31.2127 
209.897 30.521C209.897 30.0002 209.67 29.5566 209.214 29.1904C208.766 
28.8161 207.887 28.3766 206.577 27.8721C205.332 27.4082 204.445 27.0054 
203.916 26.6636C203.395 26.3136 203.005 25.9189 202.744 25.4795C202.492 
25.04 202.366 24.5151 202.366 23.9048C202.366 22.8143 202.809 21.9557 
203.696 21.3291C204.583 20.6943 205.8 20.377 207.346 20.377C208.787 20.377 
210.194 20.6699 211.57 21.2559L210.85 22.9038C209.507 22.3504 208.29 
22.0737 207.2 22.0737C206.239 22.0737 205.515 22.2243 205.027 
22.5254C204.539 22.8265 204.294 23.2415 204.294 23.7705C204.294 24.1286 
204.384 24.4338 204.563 24.686C204.75 24.9383 205.047 25.1784 205.454 
25.4062C205.861 25.6341 206.642 25.9637 207.798 26.395C209.385 26.9728 
210.455 27.5547 211.008 28.1406C211.57 28.7266 211.851 29.4631 211.851 
30.3501ZM223.789 30.3501C223.789 31.5952 223.325 32.5555 222.397 
33.231C221.47 33.9064 220.168 34.2441 218.491 34.2441C216.717 34.2441 
215.334 33.9634 214.341 33.4019V31.522C214.984 31.8475 215.671 32.1038 
216.404 32.291C217.144 32.4782 217.856 32.5718 218.54 32.5718C219.598 
32.5718 220.412 32.4049 220.981 32.0713C221.551 31.7295 221.836 31.2127 
221.836 30.521C221.836 30.0002 221.608 29.5566 221.152 29.1904C220.705 
28.8161 219.826 28.3766 218.516 27.8721C217.271 27.4082 216.383 27.0054 
215.854 26.6636C215.334 26.3136 214.943 25.9189 214.683 25.4795C214.43 
25.04 214.304 24.5151 214.304 23.9048C214.304 22.8143 214.748 21.9557 
215.635 21.3291C216.522 20.6943 217.738 20.377 219.285 20.377C220.725 
20.377 222.133 20.6699 223.508 21.2559L222.788 22.9038C221.445 22.3504 
220.229 22.0737 219.138 22.0737C218.178 22.0737 217.454 22.2243 216.965 
22.5254C216.477 22.8265 216.233 23.2415 216.233 23.7705C216.233 24.1286 
216.322 24.4338 216.501 24.686C216.689 24.9383 216.986 25.1784 217.393 
25.4062C217.799 25.6341 218.581 25.9637 219.736 26.395C221.323 26.9728 
222.393 27.5547 222.947 28.1406C223.508 28.7266 223.789 29.4631 223.789 
30.3501ZM238.645 27.2983C238.645 29.4793 238.096 31.1842 236.997 
32.4131C235.898 33.6338 234.381 34.2441 232.444 34.2441C231.248 34.2441 
230.186 33.9634 229.258 33.4019C228.33 32.8403 227.614 32.0347 227.109 
30.9849C226.605 29.9351 226.353 28.7062 226.353 27.2983C226.353 25.1174 
226.898 23.4206 227.988 22.208C229.079 20.9873 230.592 20.377 232.529 
20.377C234.401 20.377 235.886 20.9995 236.985 22.2446C238.092 23.4897 
238.645 25.1743 238.645 27.2983ZM228.452 27.2983C228.452 29.0073 228.794 
30.3094 229.478 31.2046C230.161 32.0998 231.166 32.5474 232.493 
32.5474C233.819 32.5474 234.824 32.1038 235.508 31.2168C236.2 30.3216 
236.545 29.0155 236.545 27.2983C236.545 25.5975 236.2 24.3076 235.508 
23.4287C234.824 22.5417 233.811 22.0981 232.468 22.0981C231.142 22.0981 
230.141 22.5335 229.465 23.4043C228.79 24.2751 228.452 25.5731 228.452 
27.2983ZM247.556 34.2441C245.619 34.2441 244.118 33.6501 243.052 
32.4619C241.994 31.2656 241.465 29.577 241.465 27.396C241.465 25.158 
242.002 23.4287 243.076 22.208C244.159 20.9873 245.697 20.377 247.69 
20.377C248.333 20.377 248.976 20.4461 249.619 20.5845C250.262 20.7228 
250.767 20.8856 251.133 21.0728L250.51 22.7939C250.063 22.6149 249.574 
22.4684 249.045 22.3545C248.516 22.2324 248.049 22.1714 247.642 
22.1714C244.924 22.1714 243.564 23.9048 243.564 27.3716C243.564 29.0155 
243.894 30.2769 244.553 31.1558C245.221 32.0347 246.205 32.4741 247.507 
32.4741C248.622 32.4741 249.766 32.234 250.938 31.7539V33.5483C250.042 
34.0122 248.915 34.2441 247.556 34.2441ZM256.15 
34H254.124V20.6211H256.15V34ZM253.953 16.9956C253.953 16.5317 254.067 
16.194 254.294 15.9824C254.522 15.7627 254.807 15.6528 255.149 
15.6528C255.474 15.6528 255.755 15.7627 255.991 15.9824C256.227 16.2021 
256.345 16.5399 256.345 16.9956C256.345 17.4513 256.227 17.7931 255.991 
18.021C255.755 18.2407 255.474 18.3506 255.149 18.3506C254.807 18.3506 
254.522 18.2407 254.294 18.021C254.067 17.7931 253.953 17.4513 253.953 
16.9956ZM268.674 34L268.271 32.0957H268.174C267.507 32.9339 266.839 
33.5036 266.172 33.8047C265.513 34.0977 264.687 34.2441 263.694 
34.2441C262.367 34.2441 261.326 33.9023 260.569 33.2188C259.82 32.5352 
259.446 31.5627 259.446 30.3013C259.446 27.5994 261.606 26.1834 265.928 
26.0532L268.198 25.98V25.1499C268.198 24.1001 267.97 23.327 267.515 
22.8306C267.067 22.326 266.347 22.0737 265.354 22.0737C264.239 22.0737 
262.978 22.4155 261.57 23.0991L260.947 21.5488C261.606 21.1908 262.327 
20.91 263.108 20.7065C263.897 20.5031 264.687 20.4014 265.476 
20.4014C267.071 20.4014 268.251 20.7554 269.016 21.4634C269.789 22.1714 
270.176 23.3066 270.176 24.8691V34H268.674ZM264.097 32.5718C265.358 
32.5718 266.347 32.2259 267.063 31.5342C267.787 30.8424 268.149 29.874 
268.149 28.6289V27.4204L266.123 27.5059C264.512 27.5628 263.348 27.8151 
262.632 28.2627C261.924 28.7021 261.57 29.3898 261.57 30.3257C261.57 
31.0581 261.79 31.6156 262.229 31.998C262.677 32.3805 263.299 32.5718 
264.097 32.5718ZM278.684 32.5718C279.042 32.5718 279.388 32.5474 279.722 
32.4985C280.055 32.4416 280.32 32.3846 280.515 32.3276V33.8779C280.295 
33.9837 279.97 34.0692 279.539 34.1343C279.115 34.2075 278.733 34.2441 
278.391 34.2441C275.803 34.2441 274.509 32.881 274.509 
30.1548V22.1958H272.593V21.2192L274.509 20.377L275.364 
17.5205H276.536V20.6211H280.417V22.1958H276.536V30.0693C276.536 30.875 
276.727 31.4935 277.109 31.9248C277.492 32.3561 278.017 32.5718 278.684 
32.5718ZM285.227 34H283.201V20.6211H285.227V34ZM283.03 16.9956C283.03 
16.5317 283.144 16.194 283.372 15.9824C283.599 15.7627 283.884 15.6528 
284.226 15.6528C284.552 15.6528 284.832 15.7627 285.068 15.9824C285.304 
16.2021 285.422 16.5399 285.422 16.9956C285.422 17.4513 285.304 17.7931 
285.068 18.021C284.832 18.2407 284.552 18.3506 284.226 18.3506C283.884 
18.3506 283.599 18.2407 283.372 18.021C283.144 17.7931 283.03 17.4513 
283.03 16.9956ZM301.072 27.2983C301.072 29.4793 300.522 31.1842 299.424 
32.4131C298.325 33.6338 296.807 34.2441 294.871 34.2441C293.674 34.2441 
292.612 33.9634 291.685 33.4019C290.757 32.8403 290.041 32.0347 289.536 
30.9849C289.032 29.9351 288.779 28.7062 288.779 27.2983C288.779 25.1174 
289.325 23.4206 290.415 22.208C291.506 20.9873 293.019 20.377 294.956 
20.377C296.828 20.377 298.313 20.9995 299.412 22.2446C300.518 23.4897 
301.072 25.1743 301.072 27.2983ZM290.879 27.2983C290.879 29.0073 291.221 
30.3094 291.904 31.2046C292.588 32.0998 293.593 32.5474 294.919 
32.5474C296.246 32.5474 297.251 32.1038 297.935 31.2168C298.626 30.3216 
298.972 29.0155 298.972 27.2983C298.972 25.5975 298.626 24.3076 297.935 
23.4287C297.251 22.5417 296.238 22.0981 294.895 22.0981C293.569 22.0981 
292.568 22.5335 291.892 23.4043C291.217 24.2751 290.879 25.5731 290.879 
27.2983ZM313.792 34V25.3452C313.792 24.2547 313.543 23.4409 313.047 
22.9038C312.55 22.3667 311.773 22.0981 310.715 22.0981C309.316 22.0981 
308.29 22.4766 307.639 23.2334C306.988 23.9902 306.663 25.2394 306.663 
26.981V34H304.636V20.6211H306.284L306.614 22.4521H306.711C307.126 21.793 
307.708 21.2843 308.457 20.9263C309.206 20.5601 310.04 20.377 310.959 
20.377C312.571 20.377 313.783 20.7676 314.597 21.5488C315.411 22.3219 
315.818 23.563 315.818 25.272V34H313.792Z" fill="black" 
fill-opacity="0.8"/>
<path d="M72.1108 40.28C63.0708 40.28 55.9108 42.88 50.6308 48.08C45.3508 
53.2 42.7108 60.52 42.7108 70.04V78.68H84.9508C84.7908 83.72 83.2708 87.68 
80.3908 90.56C77.5908 93.44 73.6708 94.88 68.6308 94.88C64.3908 94.88 
60.5508 94.48 57.1108 93.68C53.6708 92.8 50.1108 91.48 46.4308 
89.72V103.52C49.6308 105.12 52.9908 106.28 56.5108 107C60.1108 107.8 
64.4308 108.2 69.4708 108.2C76.0308 108.2 81.8308 107 86.8708 
104.6C91.9108 102.12 95.8708 98.4 98.7508 93.44C101.631 88.48 103.071 
82.24 103.071 74.72C103.071 67.04 101.751 60.68 99.1108 55.64C96.5508 
50.52 92.9508 46.68 88.3108 44.12C83.6708 41.56 78.2708 40.28 72.1108 
40.28ZM71.9908 53C75.4308 53 78.2708 54.12 80.5108 56.36C82.8308 58.6 
84.1908 62.08 84.5908 66.8H59.5108C59.5908 62.8 60.6308 59.52 62.6308 
56.96C64.6308 54.32 67.7508 53 71.9908 53Z" fill="#011993"/>
<path d="M6.20215 67.9111C6.20215 54.9717 8.08203 42.8623 11.8418 
31.583C15.6504 20.3037 21.1191 10.416 28.248 1.91992H43.2627C36.4756 
11.0996 31.2754 21.4023 27.6621 32.8281C24.0488 44.2051 22.2422 55.8506 
22.2422 67.7646C22.2422 79.6787 24.0488 91.2266 27.6621 102.408C31.2754 
113.59 36.4268 123.697 43.1162 132.73H28.248C21.0703 124.43 15.6016 
114.737 11.8418 103.653C8.08203 92.5693 6.20215 80.6553 6.20215 67.9111Z" 
fill="black"/>
<line x1="375.009" y1="74.5" x2="545.006" y2="75.5625" stroke="black" 
stroke-width="3"/>
<line x1="335.5" y1="13" x2="335.5" y2="108" stroke="black" 
stroke-width="17"/>
</svg>
